<svg xmlns="http://www.w3.org/2000/svg" version="1.0" width="337.000000pt" height="147.000000pt" viewBox="0 0 337.000000 147.000000" preserveAspectRatio="xMidYMid meet">

<g transform="translate(0.000000,147.000000) scale(0.100000,-0.100000)" fill="#ffffff" stroke="none">
<path d="M70 795 l0 -587 128 4 c147 4 195 21 270 96 64 63 93 134 94 226 0 96 -22 162 -74 221 -36 41 -39 48 -25 56 24 14 72 87 87 132 6 21 12 72 12 113 -1 124 -63 228 -174 290 -50 27 -61 29 -185 32 l-133 4 0 -587z m251 419 c37 -19 76 -68 89 -112 12 -46 12 -48 -1 -95 -20 -71 -98 -137 -164 -137 l-25 0 0 185 0 186 38 -7 c20 -4 49 -13 63 -20z m-4 -515 c155 -75 116 -318 -53 -337 l-44 -5 0 182 0 181 27 0 c15 0 46 -10 70 -21z" fill="#ffffff"/>
<path d="M795 1361 c-52 -24 -121 -99 -134 -147 -7 -25 -11 -210 -11 -521 l0 -483 75 0 75 0 0 145 0 145 100 0 100 0 0 -145 0 -145 75 0 76 0 -3 498 c-3 490 -3 498 -25 538 -25 48 -83 101 -129 120 -48 20 -151 17 -199 -5z m180 -163 l25 -30 0 -259 0 -259 -100 0 -100 0 0 259 0 259 25 31 c41 48 109 47 150 -1z" fill="#ffffff"/>
<path d="M1380 1359 c-55 -25 -95 -62 -123 -114 -22 -39 -22 -50 -25 -537 l-3 -498 76 0 75 0 0 470 c0 521 0 518 63 545 41 17 80 9 112 -22 l25 -26 0 -483 0 -484 75 0 75 0 0 493 c0 458 -2 495 -19 532 -23 50 -84 109 -133 130 -53 21 -143 19 -198 -6z" fill="#ffffff"/>
<path d="M2254 1365 c-209 -56 -380 -232 -424 -436 -19 -86 -8 -259 20 -334 62 -163 205 -302 369 -358 74 -26 222 -34 304 -17 64 14 167 56 202 83 19 15 23 13 73 -36 l52 -52 52 53 53 52 -49 49 -48 49 29 44 c96 139 127 310 88 477 -46 196 -212 366 -414 425 -68 20 -235 20 -307 1z m341 -173 c106 -50 204 -168 235 -284 28 -104 -4 -289 -61 -357 l-20 -24 -57 56 -57 57 -53 -52 -52 -53 56 -56 56 -57 -58 -28 c-82 -40 -222 -46 -318 -14 -201 67 -324 267 -295 480 20 141 117 272 247 333 113 53 263 52 377 -1z" fill="#ffffff"/>
<path d="M3070 795 l0 -585 75 0 75 0 0 585 0 585 -75 0 -75 0 0 -585z" fill="#ffffff"/>
</g>
</svg>